<svg id="logo logo-horizontal" fill="currentColor" width="453" height="190" viewBox="0 0 453 190" xmlns="http://www.w3.org/2000/svg">
<path d="M29.491 2.3H63.761L89.981 163.3H64.681L60.081 131.33V131.79H31.331L26.731 163.3H3.27099L29.491 2.3ZM57.091 109.94L45.821 30.36H45.361L34.321 109.94H57.091Z" />
<path d="M104.555 2.3H142.045C155.079 2.3 164.585 5.36667 170.565 11.5C176.545 17.48 179.535 26.7567 179.535 39.33V49.22C179.535 65.9333 174.015 76.5133 162.975 80.96V81.42C169.109 83.26 173.402 87.0167 175.855 92.69C178.462 98.3633 179.765 105.953 179.765 115.46V143.75C179.765 148.35 179.919 152.107 180.225 155.02C180.532 157.78 181.299 160.54 182.525 163.3H156.765C155.845 160.693 155.232 158.24 154.925 155.94C154.619 153.64 154.465 149.5 154.465 143.52V114.08C154.465 106.72 153.239 101.583 150.785 98.67C148.485 95.7567 144.422 94.3 138.595 94.3H129.855V163.3H104.555V2.3ZM139.055 71.3C144.115 71.3 147.872 69.9967 150.325 67.39C152.932 64.7833 154.235 60.4133 154.235 54.28V41.86C154.235 36.0333 153.162 31.8167 151.015 29.21C149.022 26.6033 145.802 25.3 141.355 25.3H129.855V71.3H139.055Z" />
<path d="M235.269 165.6C223.156 165.6 213.879 162.15 207.439 155.25C201.152 148.35 198.009 138.613 198.009 126.04V39.56C198.009 26.9867 201.152 17.25 207.439 10.35C213.879 3.45 223.156 0 235.269 0C247.382 0 256.582 3.45 262.869 10.35C269.309 17.25 272.529 26.9867 272.529 39.56V56.58H248.609V37.95C248.609 27.9833 244.392 23 235.959 23C227.526 23 223.309 27.9833 223.309 37.95V127.88C223.309 137.693 227.526 142.6 235.959 142.6C244.392 142.6 248.609 137.693 248.609 127.88V103.27H272.529V126.04C272.529 138.613 269.309 148.35 262.869 155.25C256.582 162.15 247.382 165.6 235.269 165.6Z" />
<path d="M289.966 2.3H315.266V140.3H356.896V163.3H289.966V2.3Z" />
<path d="M407 165.6C394.58 165.6 385.073 162.073 378.48 155.02C371.887 147.967 368.59 138 368.59 125.12V40.48C368.59 27.6 371.887 17.6333 378.48 10.58C385.073 3.52667 394.58 0 407 0C419.42 0 428.927 3.52667 435.52 10.58C442.113 17.6333 445.41 27.6 445.41 40.48V125.12C445.41 138 442.113 147.967 435.52 155.02C428.927 162.073 419.42 165.6 407 165.6ZM407 142.6C415.74 142.6 420.11 137.31 420.11 126.73V38.87C420.11 28.29 415.74 23 407 23C398.26 23 393.89 28.29 393.89 38.87V126.73C393.89 137.31 398.26 142.6 407 142.6Z" />
<path d="M0.510986 171.35H453V189.75H0.510986V171.35Z" />
</svg>
