<svg fill="currentColor" width="273" height="387" viewBox="0 0 273 387" xmlns="http://www.w3.org/2000/svg">
<path d="M29.031 1H63.301L89.521 162H64.221L59.621 130.03V130.49H30.871L26.271 162H2.81103L29.031 1ZM56.631 108.64L45.361 29.06H44.901L33.861 108.64H56.631Z"/>
<path d="M104.095 1H141.585C154.619 1 164.125 4.06667 170.105 10.2C176.085 16.18 179.075 25.4567 179.075 38.03V47.92C179.075 64.6333 173.555 75.2133 162.515 79.66V80.12C168.649 81.96 172.942 85.7167 175.395 91.39C178.002 97.0633 179.305 104.653 179.305 114.16V142.45C179.305 147.05 179.459 150.807 179.765 153.72C180.072 156.48 180.839 159.24 182.065 162H156.305C155.385 159.393 154.772 156.94 154.465 154.64C154.159 152.34 154.005 148.2 154.005 142.22V112.78C154.005 105.42 152.779 100.283 150.325 97.37C148.025 94.4567 143.962 93 138.135 93H129.395V162H104.095V1ZM138.595 70C143.655 70 147.412 68.6967 149.865 66.09C152.472 63.4833 153.775 59.1133 153.775 52.98V40.56C153.775 34.7333 152.702 30.5167 150.555 27.91C148.562 25.3033 145.342 24 140.895 24H129.395V70H138.595Z"/>
<path d="M218.49 24H192.04V1H270.24V24H243.79V162H218.49V24Z"/>
<path d="M45.131 360.3C33.0177 360.3 23.741 356.85 17.301 349.95C11.0144 343.05 7.87103 333.313 7.87103 320.74V234.26C7.87103 221.687 11.0144 211.95 17.301 205.05C23.741 198.15 33.0177 194.7 45.131 194.7C57.2444 194.7 66.4444 198.15 72.731 205.05C79.171 211.95 82.391 221.687 82.391 234.26V251.28H58.471V232.65C58.471 222.683 54.2544 217.7 45.821 217.7C37.3877 217.7 33.171 222.683 33.171 232.65V322.58C33.171 332.393 37.3877 337.3 45.821 337.3C54.2544 337.3 58.471 332.393 58.471 322.58V297.97H82.391V320.74C82.391 333.313 79.171 343.05 72.731 349.95C66.4444 356.85 57.2444 360.3 45.131 360.3Z"/>
<path d="M99.8279 197H125.128V335H166.758V358H99.8279V197Z"/>
<path d="M216.862 360.3C204.442 360.3 194.935 356.773 188.342 349.72C181.749 342.667 178.452 332.7 178.452 319.82V235.18C178.452 222.3 181.749 212.333 188.342 205.28C194.935 198.227 204.442 194.7 216.862 194.7C229.282 194.7 238.789 198.227 245.382 205.28C251.975 212.333 255.272 222.3 255.272 235.18V319.82C255.272 332.7 251.975 342.667 245.382 349.72C238.789 356.773 229.282 360.3 216.862 360.3ZM216.862 337.3C225.602 337.3 229.972 332.01 229.972 321.43V233.57C229.972 222.99 225.602 217.7 216.862 217.7C208.122 217.7 203.752 222.99 203.752 233.57V321.43C203.752 332.01 208.122 337.3 216.862 337.3Z"/>
<path d="M0.0510254 170.05H273V188.45H0.0510254V170.05ZM0.0510254 366.05H262.862V384.45H0.0510254V366.05Z"/>
</svg>
